
<svg xmlns="http://www.w3.org/2000/svg" xmlns:xlink="http://www.w3.org/1999/xlink" version="1.1" width="3162.162162162162" height="760.4551600882608" viewBox="0 0 3162.162162162162 760.4551600882608">

			<g transform="scale(8.108108108108107) translate(10, 10)">
				<defs id="SvgjsDefs8392"/><g id="SvgjsG8393" featureKey="monogramFeature-0" transform="matrix(5.263157441864235,0,0,5.263157441864235,-5.2631599515332725,-31.473679093065847)" fill="#fff"><path d="M9.06 20 l-1.68 -3.64 l-1.74 0 l0 3.64 l-4.64 0 l0 -14.02 l6.78 0 q2.86 0 4.42 1.31 t1.56 3.71 q0 1.52 -0.57 2.65 t-1.65 1.79 l2.76 4.56 l-5.24 0 z M5.64 12.84 l2.14 0 q0.76 0 1.17 -0.45 t0.41 -1.25 q0 -0.78 -0.41 -1.21 t-1.17 -0.43 l-2.14 0 l0 3.34 z"/></g><g id="SvgjsG8394" featureKey="fHLFJf-0" transform="matrix(2.2431315397771807,0,0,2.2431315397771807,87.75686739061435,10.790136232669056)" fill="#fff"><path d="M9.06 20 l-1.68 -3.64 l-1.74 0 l0 3.64 l-4.64 0 l0 -14.02 l6.78 0 q2.86 0 4.42 1.31 t1.56 3.71 q0 1.52 -0.57 2.65 t-1.65 1.79 l2.76 4.56 l-5.24 0 z M5.64 12.84 l2.14 0 q0.76 0 1.17 -0.45 t0.41 -1.25 q0 -0.78 -0.41 -1.21 t-1.17 -0.43 l-2.14 0 l0 3.34 z M24.2295 9.64 q1.32 0.74 2.02 2.11 t0.7 3.21 q0 0.38 -0.02 0.58 l-7.12 0 q0.22 0.64 0.69 0.97 t1.13 0.33 q1.18 0 2.22 -0.98 l2.34 2.3 q-0.88 0.98 -2.13 1.49 t-2.83 0.51 q-1.84 0 -3.19 -0.69 t-2.06 -1.95 t-0.71 -2.94 q0 -1.72 0.72 -3 t2.05 -1.98 t3.07 -0.7 q1.8 0 3.12 0.74 z M22.0995 12.34 q-0.37 -0.44 -0.95 -0.44 q-0.56 0 -0.93 0.42 t-0.51 1.14 l2.72 0 q0.04 -0.68 -0.33 -1.12 z M45.699 9.38 q0.88 0.52 1.37 1.46 t0.49 2.18 l0 6.98 l-4.5 0 l0 -5.68 q0 -0.68 -0.34 -1.09 t-0.9 -0.41 q-0.62 0 -1 0.48 t-0.38 1.28 l0 5.42 l-4.5 0 l0 -5.68 q0 -0.68 -0.34 -1.09 t-0.9 -0.41 q-0.62 0 -1 0.48 t-0.38 1.28 l0 5.42 l-4.5 0 l0 -10.94 l4.5 0 l0 1.54 q0.56 -0.84 1.39 -1.29 t1.87 -0.45 q1.24 0 2.17 0.62 t1.37 1.72 q0.54 -1.12 1.45 -1.73 t2.13 -0.61 q1.12 0 2 0.52 z M49.92850000000001 9.06 l4.5 0 l0 10.94 l-4.5 0 l0 -10.94 z M53.7685 4.300000000000001 q0.64 0.64 0.64 1.64 t-0.64 1.64 t-1.64 0.64 t-1.64 -0.64 t-0.64 -1.64 t0.64 -1.64 t1.64 -0.64 t1.64 0.64 z M64.89800000000001 19.52 q-0.54 0.32 -1.41 0.5 t-1.77 0.18 q-1.84 0 -2.95 -1.01 t-1.11 -2.71 l0 -3.98 l-1.5 0 l0 -2.84 l1.5 0 l0 -3.06 l4.48 0 l0 3.06 l2.56 0 l0 2.84 l-2.56 0 l0 3.3 q0 0.44 0.24 0.69 t0.64 0.23 q0.38 0 1.12 -0.28 z M74.56750000000001 19.52 q-0.54 0.32 -1.41 0.5 t-1.77 0.18 q-1.84 0 -2.95 -1.01 t-1.11 -2.71 l0 -3.98 l-1.5 0 l0 -2.84 l1.5 0 l0 -3.06 l4.48 0 l0 3.06 l2.56 0 l0 2.84 l-2.56 0 l0 3.3 q0 0.44 0.24 0.69 t0.64 0.23 q0.38 0 1.12 -0.28 z M76.337 5.98 l11.86 0 l0 3.52 l-7.22 0 l0 1.72 l6.56 0 l0 3.52 l-6.56 0 l0 1.74 l7.4 0 l0 3.52 l-12.04 0 l0 -14.02 z M99.7365 9.93 q1.33 1.07 1.33 2.99 l0 7.08 l-4.42 0 l0 -1.18 q-1 1.38 -3.08 1.38 q-1.72 0 -2.69 -0.93 t-0.97 -2.51 q0 -1.62 1.08 -2.46 t3.16 -0.88 l2.5 0 q-0.02 -0.58 -0.45 -0.89 t-1.25 -0.31 q-0.64 0 -1.53 0.18 t-1.79 0.52 l-1 -3 q1.4 -0.52 2.79 -0.79 t2.61 -0.27 q2.38 0 3.71 1.07 z M95.97650000000002 17.12 q0.41 -0.22 0.67 -0.62 l0 -1 l-1.56 0 q-0.96 0 -0.96 0.88 q0 0.46 0.26 0.71 t0.74 0.25 q0.44 0 0.85 -0.22 z M107.81600000000002 11.82 q-0.28 0 -0.45 0.1 t-0.17 0.26 q0 0.24 0.36 0.4 t1.2 0.38 q1.18 0.32 2.02 0.66 t1.47 1.04 t0.63 1.82 t-0.61 1.96 t-1.73 1.3 t-2.62 0.46 q-3.06 0 -5.34 -1.56 l1.36 -2.8 q2.2 1.36 4.04 1.36 q0.32 0 0.5 -0.09 t0.18 -0.23 q0 -0.22 -0.35 -0.37 t-1.13 -0.35 q-1.18 -0.3 -2 -0.64 t-1.45 -1.04 t-0.63 -1.84 t0.6 -1.99 t1.69 -1.32 t2.53 -0.47 q2.62 0 5.08 1.38 l-1.48 2.78 q-2.44 -1.2 -3.7 -1.2 z M123.10550000000002 9.64 q1.32 0.74 2.02 2.11 t0.7 3.21 q0 0.38 -0.02 0.58 l-7.12 0 q0.22 0.64 0.69 0.97 t1.13 0.33 q1.18 0 2.22 -0.98 l2.34 2.3 q-0.88 0.98 -2.13 1.49 t-2.83 0.51 q-1.84 0 -3.19 -0.69 t-2.06 -1.95 t-0.71 -2.94 q0 -1.72 0.72 -3 t2.05 -1.98 t3.07 -0.7 q1.8 0 3.12 0.74 z M120.97550000000001 12.34 q-0.37 -0.44 -0.95 -0.44 q-0.56 0 -0.93 0.42 t-0.51 1.14 l2.72 0 q0.04 -0.68 -0.33 -1.12 z"/></g>
			</g>
		</svg>
